# xmcd
# Copyright (C) 1995-1998 Ti Kan
#
# Track frame offsets:
#       150
#       16715
#       34685
#       52307
#
# Disc length: 917 seconds
#
# Revision: 0
# Processed by: cddbd v1.4PL0 Copyright (c) Steve Scherf et al.
# Submitted via: CD-Transfer v1.0
#
DISCID=2a039304
DTITLE=Morgan,Debelah - 
DYEAR=2001
DGENRE=
TTITLE0=I Remember (Remix Edit)
TTITLE1=I Remember (Album Version)
TTITLE2=I Remember (Dark Child Remix 1)
TTITLE3=I Remember (Dark Child Remix 2)
EXTD=
EXTT0=
EXTT1=
EXTT2=
EXTT3=
PLAYORDER=
